<svg xmlns="http://www.w3.org/2000/svg" width="64" height="64" viewBox="0 0 64 64" role="img" aria-label="Will My Crypto"><title>Will My Crypto</title><defs><linearGradient id="Lg" x1="0" y1="0" x2="1" y2="1"><stop offset="0" stop-color="#1d4a6b"/><stop offset="1" stop-color="#0b1d2e"/></linearGradient><linearGradient id="Lr" x1="0" y1="0" x2="0" y2="1"><stop offset="0" stop-color="#5fe0c8"/><stop offset="1" stop-color="#1b9c88"/></linearGradient></defs><path d="M32 3.5 L54.5 11.5 V30 C54.5 44 45 54.5 32 60.5 C19 54.5 9.5 44 9.5 30 V11.5 Z" fill="url(#Lg)"/><path d="M32 3.5 L54.5 11.5 V30 C54.5 44 45 54.5 32 60.5 C19 54.5 9.5 44 9.5 30 V11.5 Z" fill="none" stroke="url(#Lr)" stroke-width="1.6"/><g fill="none" stroke="#e6f6f3" stroke-width="2.5" stroke-linecap="round" stroke-linejoin="round"><path d="M24.5 21 H39.5 L32 33.5 Z"/><path d="M32 33.5 V50.5"/><path d="M32 42 H37.5"/><path d="M32 47 H36"/></g><g fill="#3fd6bc"><circle cx="24.5" cy="21" r="3.7"/><circle cx="39.5" cy="21" r="3.7"/><circle cx="32" cy="33.5" r="3.7"/></g><circle cx="32" cy="51" r="2.9" fill="#f2b36b"/></svg>
